<svg width="56" height="47" viewBox="0 0 56 47" fill="none" xmlns="http://www.w3.org/2000/svg">
<path d="M14.6158 7.63859H15.3009L15.5483 6.99978L16.87 3.58753C16.8701 3.5874 16.8701 3.58727 16.8702 3.58713C17.4669 2.04904 19.0085 1 20.7631 1H34.2505C36.0052 1 37.5469 2.04922 38.1435 3.58753L38.1444 3.58968L39.477 7.00233L39.7254 7.63859H40.4085H49.8658C52.1951 7.63859 54.0243 9.45413 54.0243 11.6175V41.4912C54.0243 43.6546 52.1951 45.4701 49.8658 45.4701H5.15853C2.82918 45.4701 1 43.6546 1 41.4912V11.6175C1 9.45413 2.82918 7.63859 5.15853 7.63859H14.6158ZM41.4085 26.5544C41.4085 19.1022 35.1452 13.107 27.5122 13.107C19.8791 13.107 13.6158 19.1022 13.6158 26.5544C13.6158 34.0065 19.8791 40.0017 27.5122 40.0017C35.1452 40.0017 41.4085 34.0065 41.4085 26.5544ZM35.9695 26.5544C35.9695 30.9998 32.2058 34.6824 27.5122 34.6824C22.8185 34.6824 19.0549 30.9998 19.0549 26.5544C19.0549 22.1089 22.8185 18.4263 27.5122 18.4263C32.2058 18.4263 35.9695 22.1089 35.9695 26.5544Z" fill="white" stroke="#5E5E5E" stroke-width="2"/>
</svg>
