<?xml version="1.0" encoding="UTF-8"?>
<svg version="1.1" fill="currentColor"  viewBox="0 0 1480 1232" width="1280" height="1280" xmlns="http://www.w3.org/2000/svg">
<path transform="translate(952,240)" d="m0 0h11l6 7 8 19 16 49 11 39 17 63 14 59 5 27 5 36 3 29 2 27v56l-4 37-6 29-8 24-8 16-7 11-13 14-7 5 4 19 22 99 24 105 13 60 1 9 38-9 40-9 8 2 6 7v10l-5 5-15 4-73 17-100 22-9-1-5-6-1-3v-7l5-7 13-4 64-14 9-1-7-33-17-75-13-57-10-45-14-62-4-17-2-1h-9l-19-5-19-10-10-8-6-5v-2l-4-2-7-8-11-13-12-17-10-15-13-24-8-16-11-23-11-28-9-25-11-36-11-44-6-28-8-43-6-36-9-57-5-43v-16l5-6 13-4 42-10 55-12 56-13zm-6 28-24 6-75 17-28 7-36 8-3 1 1 12 7 50 16 97 1 2 4-2 10-8 15-8 11-4 15-3 15-1 16 2 19 7 22 10 13 4h20l15-4 17-9 5-4-1-8-11-43-9-33-15-50-12-38-3-8zm-82 200-17 4-14 7-11 9-8 9-1 2v9l9 38 11 38 9 26 11 27 11 24 14 27 10 17 12 17 11 14 6 7h2l2 4 10 9 10 7 12 6 10 3h9l12-5 6-5 10-13 8-16 6-18 6-26 4-23v-14l1-30v-26l-1-23-5-45-7-48-1-4-6 2-12 6-18 5-14 2h-13l-14-3-19-7-12-6-15-5-10-2z" fill="#030303"/>
<path transform="translate(535,240)" d="m0 0 18 3 74 17 81 18 28 7 7 6 1 4v9l-6 50-9 56-6 37-6 29-4 23-10 43-13 45-13 38-12 29-8 18-10 19-8 14-10 16-10 14-9 12-10 11-7 8-11 10-11 7-12 7-15 5-5 1-14 1-10 43-12 53-28 126-10 43-5 22 19 4 61 14 6 3 5 6v8l-6 8-7 1-39-8-80-18-53-12-16-4-6-6v-9l4-7 6-3 9 1 48 11 19 5 6 1 1-9 18-82 8-36 11-50 7-31 11-51 7-29-1-4-12-11-10-12-10-19-8-24-5-23-4-27-2-28v-38l1-23 5-49 5-33 8-39 16-64 11-41 9-31 13-41 9-26 5-11 3-5zm13 27-4 10-14 44-16 55-12 45-5 20v6l9 7 15 7 15 3h16l16-5 31-13 15-4 9-1h9l19 3 16 6 16 9 9 9 2-1 7-41 15-90 4-27-1-5-28-6-31-7-53-12-55-12zm71 200-16 4-15 6-17 7-16 4-10 1h-9l-19-3-16-6-10-5h-3l-5 25-4 26-4 33-2 25v65l2 26 5 26 7 24 7 17 8 12 8 9 8 5 11 3h8l14-5 12-8 11-9 7-7 9-11 12-16 7-11 12-20 12-22 9-19 11-27 11-30 12-40 11-46-4-6-6-7-14-11-15-6-13-3z" fill="#030303"/>
<path transform="translate(639,154)" d="m0 0 9 2 7 9 12 20 20 32 1 3v9l-7 7-9 1-6-4-11-17-24-39-3-6v-9l5-6z" fill="#030303"/>
<path transform="translate(854,155)" d="m0 0 9 1 5 5 2 3v7l-7 14-8 13-9 15-12 19-4 4-3 1h-8l-5-2-5-8 3-9 10-17 13-22 12-19 4-4z" fill="#060606"/>
<path transform="translate(745,140)" d="m0 0h10l6 5 2 4v18l-1 53-3 7-5 4h-9l-5-3-4-5v-29l1-44 3-6z" fill="#090909"/>
</svg>
