<?xml version="1.0" encoding="UTF-8"?>
<svg version="1.1" viewBox="0 0 2000 2000" width="1280" height="1280" fill="currentColor"  xmlns="http://www.w3.org/2000/svg">
<path transform="translate(991,480)" d="m0 0h19l24 3 26 8 23 12 13 9 14 12 8 8 9 11 10 15 10 19 8 24 4 22 1 20-1 20-5 26-7 21-8 16-6 10-13 17-12 14-15 14-8 7-13 11-11 9-14 14-5 10-1 5v57l30 14 27 12 29 13 101 46 35 16 39 18 108 49 35 16 36 16 42 19 68 31 70 32 103 47 69 31 40 18 26 12 25 12 17 10 15 10 14 12 11 13 8 13 7 17 4 18v24l-5 21-6 16-10 18-9 11-4 5-8 7-10 8-14 8-11 5-17 5-11 2-15 1h-1761l-22-2-15-4-15-6-15-9-11-9-8-7-9-11-9-14-7-15-6-20-2-12v-24l5-19 7-16 7-11 11-13 10-9 15-10 18-11 23-12 28-13 36-16 37-17 29-13 101-46 105-48 77-35 29-13 27-12 35-16 36-16 32-15 20-9 96-44 40-18 28-13 27-12 42-19 36-16h2l1-65 2-14 5-16 10-19 9-12 9-10 8-7 8-8 14-11 10-9 8-7 11-10 14-19 5-10 4-14 2-19v-9l-2-16-6-16-9-14-8-9-13-9-9-5-13-4-15-2-19 1-16 5-12 6-9 7-6 5-9 12-7 14-3 9-3 24-5 14-6 9-11 8-7 3-8 1h-11l-13-5-7-6-9-13-3-15v-10l3-22 6-21 7-17 11-19 10-13 9-10 9-9 14-11 15-9 16-8 22-7 17-3zm6 484-12 6-33 15-26 12-70 32-40 18-37 17-58 26-33 15-40 18-37 17-140 64-36 16-39 18-29 13-38 17-37 17-40 18-39 18-70 32-23 11-15 8-15 10-5 4-4 7-1 11 3 12 7 11 11 8 11 4 8 1h1757l15-2 12-6 6-5 6-9 3-9 1-10-2-8-5-7-10-7-15-9-22-11-36-16-23-11-29-13-109-50-36-16-35-16-38-17-68-31-59-27-39-18-106-48-35-16-27-12-35-16-27-12-68-31-52-24-31-14-11-5z"/>
</svg>
