<?xml version="1.0" encoding="UTF-8"?>
<svg version="1.1" viewBox="0 0 2000 2000" width="1280" height="1280" fill="currentColor" xmlns="http://www.w3.org/2000/svg">
<path transform="translate(761,398)" d="m0 0h19l17 4 17 7 16 9 12 9 13 11 15 15 9 11 14 18 15 23 15 26 14 25 12 25 10 26 12 29 13 33 10 28v2l3-1 3-8 7-24 11-33 14-35 15-35 8-15 12-17 9-13 13-16 19-19 17-13 10-6 12-5 22-5 9-1h15l14 2 18 5 16 8 11 8 10 9 8 8 9 12 8 13 11 27 5 17 3 15 1 9v30l-5 25-6 18-10 24-8 12-11 12-17 17-11 9-15 11-17 11-3 3-1 2 366 1 6 3 7 8v233l-4 7-5 4-12 2-62 1-1 330v222l-1 17-3 5-7 6-4 1h-969l-7-4-5-8-1-6v-564h-69l-7-3-5-4-3-5-1-5v-224l3-7 5-6 6-3 378-1-5-5-11-7-18-13-12-9-13-11-14-12-7-7-11-14-7-11-13-23-10-21-7-19-6-23-4-31v-31l3-24 5-20 6-16 10-18 8-11 11-13 9-8 14-8 15-5zm1 37-12 4-11 8-8 7-9 13-6 12-5 15-3 19-1 10v31l2 19 4 20 7 20 8 16 12 20 14 19 15 16 7 7 8 7 11 9 25 14 19 10 28 11 20 6 28 6 27 4 19 2h12l-1-8-11-37-7-22-11-31-13-32-17-38-12-25-11-20-10-15-11-20-13-18-11-13-9-10-11-11-16-11-11-7-15-6-3-1zm414 54-15 4-16 8-14 11-16 17-9 11-8 10-10 16-14 27-9 19-10 24-9 25-6 22-6 25-8 32-4 20 1 1 28-2 35-4 28-5 33-9 21-8 17-8 22-13 12-9 10-9 11-11 10-14 6-10 8-18 6-21 2-22-2-22-5-20-6-13-7-12-9-12-9-10-13-10-16-8-10-2zm-671 307-51 1v183l1 1h425l1-1v-184zm415 0-1 1v767l10 1h148l3-1 1-92v-291l-1-384-1-1zm199 0-1 1-1 93 1 91h427v-184l-21-1zm-580 222-1 333v59l1 154 1 1h337l4-1 1-43v-502l-1-1zm580 0-1 1-1 209v297l1 39 55 1h280l7-1 1-69v-476l-1-1z" fill="#201E1F"/>
</svg>
