<?xml version="1.0" fill="currentColor"  encoding="UTF-8"?>
<svg version="1.1" viewBox="0 0 2032 1744" width="1280" height="1280" xmlns="http://www.w3.org/2000/svg">
<path transform="translate(572,258)" d="m0 0h900l22 1 5 2 1 2 1 254v246l12-12 8-7 9-10 153-153 8-12-65 1h-89l-7-2-2-6v-28l4-2h98l36 1 28 2 21 4 12 6 13 10 14 14 10 14 8 15 6 18 2 14 1 16 1 88v135l-1 552-2 25-4 14-7 16-11 16-11 12-11 9-19 10-13 4-21 3-17 1-47 1h-807l-313 1h-57l-50-1-37-2-20-4-14-6-13-10-10-9-9-11-9-14-7-14-4-16-2-18-1-21v-766l1-15 4-17 4-12 10-19 11-13 5-6 16-11 16-8 9-3 10-2 26-2h136l5 2 2 8v22l-4 3-5 1-159 1v2l4 2 17 17 8 7 24 24 8 7 108 108 7 8 18 18-1-54v-414l1-29 3-6 3-1zm856 35-90 1-756 1-1 418-1 74-1 5 8 13 5 6 4 4h2l2 4 68 68h2v2h2v2l8 7 15 15 8 7 11 10 15 10 16 9 16 6 12 2 12 1 35 1h436l20-2 16-4 25-12 16-11 13-11 16-15 64-64 6-5 6-7 8-7 12-12 6-9v-251l1-254-1-1-14-1zm-1110 298-4 5-6 12-5 16-1 6-1 24-1 447v254l1 82 1 16 1 6 5-1 11-7 10-9 9-10 6-5 7-8 7-7 7-8 15-16 2-4 3-1 7-8 15-16 9-10 7-7 7-8 15-15 7-8 17-17 7-8 13-13 7-8 10-10 7-8 13-13v-2l4-2v-2l4-2 7-8 16-16 7-8 23-23 7-8 17-17 7-8 16-16 5-6 55-55 8-7 8-6h5l13 9 4 4-1 6-7 11-7 7-8 10-13 13-7 8-16 17-14 15-8 8-7 8-41 41-7 8-23 23-7 8-11 11v2h-2l-7 8-21 21-7 8-12 12-7 8-10 10-7 8-9 9-7 8-13 13v2h-2l-7 8-22 22-7 8-24 24-7 8-17 17v2h-2l-7 8-10 10-8 7-5 7 1 3 14 4 24 3 36 1 683 2h235l346-2 17-1 16-4 2-1-1-4-7-9-16-17-18-20-14-14-7-8-23-23-7-8-13-13-7-8-10-10-7-8-9-9-7-8-9-9-7-8-11-11-7-8-12-12-7-8-17-17-7-8-21-21-7-8-23-23-7-8-23-23-7-8-21-21-7-8-15-15-7-8-11-11-7-8-8-9-7-11 1-8 6-8 8-6 6 1 10 8 8 8h2l2 4 8 7 21 21 7 8 30 30 7 8 14 14 1 2h2l2 4 19 19 7 8 27 27 7 8 24 24 7 8 14 14 7 8 13 13 7 8 13 13 7 8 16 16 7 8 16 17 15 16 8 8 2 3h2l2 4 17 17 7 8 12 14 7 7 7 8 12 10 5 3h2l3-9 2-22 1-33v-729l-1-31-2-18-4-12-7-10-1-1h-6l-6 4-10 9-33 33v2h-2l-7 8-95 95-8 7-72 72v2h-2v2l-4 2-2 4h-2l-7 8-25 25-7 8-63 63-8 7-11 10-17 13-11 7-15 7-18 6-15 3-20 2-23 1-342 1h-86l-32-1-18-2-19-4-18-6-21-11-12-9-11-9-10-9-13-12-40-40-7-8-29-29-7-8-69-69-7-8-143-143-7-8-15-15h-2l-2-4-3-1v-2l-6-5z" fill="#050505"/>
<path transform="translate(671,490)" d="m0 0h57l33 1 16 3 12 6 10 8 9 12 4 8 2 9v20l-2 11-7 13-9 11-4 6h-2l9 11 11 14 2 8 4 32 5 28 1 10-2 1h-18l-13-3-5-8-3-16-2-24-4-17-5-12-5-5-4-1-16-1h-44v80l-1 5-7 2h-22l-4-4-1-29v-159l1-18zm56 26-16 1-9 3-2 10v31l2 20 3 5 4 1h36l16-4 10-6 6-9 3-10v-13l-4-11-9-10-10-5-19-3z" fill="#060606"/>
<path transform="translate(911,487)" d="m0 0h37l19 5 12 7 10 9 9 14 7 15 1 8-5 6-12 3-7-1-9-6-7-8-9-12-5-5-9-6-8-3h-16l-11 4-10 7-6 7-2 6v11l6 12 12 9 11 5 30 10 15 6 15 9 9 7 9 10 5 7 4 17v13l-3 14-7 11-10 11-10 7-8 4-15 4-14 2h-22l-14-2-12-4-15-8-11-10-6-8-6-12-2-6v-11l2-6 3-2h8l11 3 5 4 8 12 8 11 8 4 15 6 5 1h15l12-3 8-4 3-1 2-4 5-8 1-3v-12l-6-12-8-8-8-5-18-6-25-7-16-8-12-8-7-6-8-10-6-14-1-4v-18l3-10 6-11 7-9h2l1-3 10-7 10-5 12-4z" fill="#070707"/>
<path transform="translate(1235,489)" d="m0 0h51l30 1 23 2 14 4 12 7 9 7 7 10 5 10 3 11 1 11-1 17-3 13-6 11-9 10-10 8-11 5-12 3-18 2h-52l1 43v35l-6 3h-22l-5-4-1-3-1-36v-168zm35 27-2 7-1 23v25l2 15 3 5 8 3 13 1h19l17-2 11-4 8-7 5-8 3-8v-17l-3-10-6-9-9-8-13-4-19-2z" fill="#060606"/>
<path transform="translate(572,258)" d="m0 0h900l22 1 5 2 1 2 1 254v41l-1 202-7 8-3 2 2-5 4-7 2-1v-8l-2 6-4 1-1-1-2-34-1-44v-85l2-79v-224l1-14 2-5-1-4h-2v-2l-277 1h-657l-4 4 1 35 1 70 1 173v115l-1 20v64l-1 7-4 1 1 9-3 1-1-11-1-44v-414l1-29 3-6 3-1z" fill="#373737"/>
<path transform="translate(1193,486)" d="m0 0h7l5 1v9l-4 15-9 29-7 20-7 19-13 36-13 35-10 26-8 17-7 8-2 1h-17l-6-3-7-8-8-20-10-28-7-18-17-49-12-36-8-23-7-18-1-7 3-3h11l8-2 9 1 5 6 7 19 10 29 8 25 9 28 13 48 5 10 3-4 7-14 7-23 12-36 24-73 4-8 3-3 13-5z" fill="#060606"/>
<path transform="translate(1260,287)" d="m0 0h68l82 1 42 1 16 1 1 2 1 91v293l-1 62-1 39-1 14-2 6h-1l-1-100v-148l1-254-14-1h-22l-90 1h-756v418l-1 62h-1l-1-11v-179l-1-204v-38l1-49 1-2h22l7-1 39-1 14-1 33-1h136z" fill="#3B3B3B"/>
<path transform="translate(316,1516)" d="m0 0 5 1 11 3 9 2 6 3 22 1 242-1h794l150 1h116l7-1h29l-4 2-21 3-17 1-47 1h-807l-313 1h-57l-50-1-37-2-20-4-14-6z" fill="#323232"/>
<path transform="translate(572,258)" d="m0 0 411 2v2h2v-2h9v2h4v-2l7 2v-2l4 1h9 3l4 1v-2l8 2 1-2v2l8-1h48l4-1v2l7-1h18l7-1 4 2v-2l6 1v-1h7 1 13 1l8 2v-2h5 1 93l5 1v1l-17 1-696 1-5 5 1 35 1 70 1 173v115l-1 20v64l-1 7-4 1 1 9-3 1-1-11-1-44v-414l1-29 3-6 3-1z" fill="#383838"/>
<path transform="translate(578,258)" d="m0 0h894l22 1 5 2 1 2v6h-8v-3h-2v-2l-277 1h-288l-368-1v-1l702-1 6-1h-92l-4 1-3-2v2h-5-2-6v-1h-8l-4 1-4-1-4 1-3-2v2h-7l-1-1-9 1h-19-4-61l-4-2v2l-6-1-1 1h-9l-4-2v2l-5-1-2-1v2h-4v-2h-4l-1 2v-2h-4v2l-4-1-242-1-161-1z" fill="#3B3B3B"/>
<path transform="translate(335,1488)" d="m0 0 7 1 13 3 19 2 36 1 683 2h235l346-2 17-1 10-1-1 2-12 2-43 1-71 1-3 1h-1196v-2h-18l-14-2-4-5-2-1v2h-3z" fill="#383838"/>
<path transform="translate(673,291)" d="m0 0 206 1 100 1 359 1v1h-756v418l-1 62h-1l-1-11v-179l-1-204v-38l1-49 1-2h22z" fill="#DCDCDC"/>
<path transform="translate(311,551)" d="m0 0 2 1-14 12-7 8-7 11-8 17-6 24-3 21-1 17v74l1 69v634h-1l-2-32v-766l1-15 4-17 4-12 10-19 11-13 5-6z" fill="#DCDCDC"/>
<path transform="translate(572,258)" d="m0 0 411 2v2h2v-2h9v2h4v-2l7 2v-2l4 1h9 3l4 1v-2l8 2 1-2v2l8-1h48l4-1v2l7-1h18l7-1 4 2v-2l6 1v-1h7 1 13 1l8 2v-2h5 1 93l5 1v1l-17 1-696 1-5 5-3 4-3-5 2-7 4-2z" fill="#DBDBDB"/>
<path transform="translate(1775,609)" d="m0 0 2 3 2 9 2 25 1 88v135l-1 552-2 25-3 11-1-4 1-13 1-36 1-151v-524l-1-89-2-25z" fill="#DCDCDC"/>
<path transform="translate(1462,292)" d="m0 0h5l1 59v299l-1 88-1 48-1 11h-1l-1-100v-148l1-254-14-1v-1z" fill="#DCDCDC"/>
<path transform="translate(1752,739)" d="m0 0 2 1 1 67v175l-1 176-1 62h-1l-1-60-1-166v-236l1-14z" fill="#6E6E6E"/>
<path transform="translate(1754,982)" d="m0 0h2v223l-1 83-1 57-3 56-1 6h-3v-73l2-100 1-73 3-3z" fill="#383838"/>
<path transform="translate(1532,532)" d="m0 0h98l36 1 28 2 21 4v1h-10v-2l-115-1-58-1 1 20 1 5 2 1 23 1 89 1h32v2l-2 1h5l4-3h3l-2 5-62 1h-89l-7-2-2-6v-28z" fill="#454545"/>
<path transform="translate(323,592)" d="m0 0 5 2 8 7 10 10 7 8 163 163 8 7 24 24v2l3 1 7 8 74 74v2l3 1 7 8 23 23 8 7 15 15 11 9 5 6-5-2-17-14-10-9-13-12-41-41-7-8-29-29v-2l-4-2-7-8-65-65-7-8-143-143v-2l-4-2-7-8-10-10-7-6v-2l-4-2z" fill="#F5F5F5"/>
<path transform="translate(335,1488)" d="m0 0 7 1 13 3 19 2 36 1 683 2v1l-588 1h-130l-28-2-5-2-5-5v2h-3z" fill="#E9E9E9"/>
<path transform="translate(1235,489)" d="m0 0h51v1l-26 1-18 1-2 4h-2v2h2l1 6-1 3v99l1 43 3 50 1 3-6-1-3-3-1-3-1-36v-168z" fill="#3D3D3D"/>
<path transform="translate(690,1064)" d="m0 0v3l-11 12-7 8-11 12-12 13-11 11-7 8-15 15-5 6h-2l-2 4-30 30h-2l-2 4-42 42-12 13-39 39-7 8-26 26-6 7-2-1 15-16 14-14 7-8 13-13 7-8 10-10 7-8 13-13 5-6 26-26 7-8 23-23 7-8 17-17 2-3h2l2-4 17-17 2-3h2l2-4h2l2-4z" fill="#F6F6F6"/>
<path transform="translate(377,533)" d="m0 0h136l5 2 2 8v22l-4 3-5 1h-137l-1-3 139-1 3-5 2-23-166-1v-1z" fill="#F1F1F1"/>
<path transform="translate(578,258)" d="m0 0h392l155 1-3 2-9 1h-19-4-61l-4-2v2l-6-1-1 1h-9l-4-2v2l-5-1-2-1v2h-4v-2h-4l-1 2v-2h-4v2l-4-1-242-1-161-1z" fill="#383838"/>
<path transform="translate(1468,349)" d="m0 0h1l1 34v293l-1 62-1 39-1 14-2 4 1-57 1-106v-282z" fill="#383838"/>
<path transform="translate(299,1155)" d="m0 0h1v162l-5-1-1-16v-86l1-33 2-23z" fill="#383838"/>
<path transform="translate(1408,1117)" d="m0 0 7 6 10 10 7 8 14 14v2h2l7 8 15 15 7 8 27 27 7 8 24 24 7 8 14 14 7 8 13 13 7 8 13 13 7 8 16 16 7 8 16 17 5 5-1 2-16-16v-2h-2l-7-8-14-14-7-8-17-17-7-8-17-17-7-8-22-22-7-8-68-68-7-8-13-13-7-8-13-15-7-8z" fill="#F5F5F5"/>
<path transform="translate(732,1061)" d="m0 0 1 4-6 10-9 10-8 10-13 13-7 8-16 17-14 15-8 8-7 8-41 41-7 8-4 3 2-4 8-10 12-14 9-10 14-15 15-16 54-54 1-2h2l2-4 11-14 7-10h2z" fill="#F7F7F7"/>
<path transform="translate(1697,1493)" d="m0 0 4 1-5 2-8 1-43 1-71 1h-259v-1l13-1 346-2 17-1z" fill="#EDEDED"/>
<path transform="translate(579,386)" d="m0 0h1l1 30 1 137v160l-1 62h-1l-1-11z" fill="#DCDCDC"/>
<path transform="translate(580,292)" d="m0 0 4 1h40l-1 2h-41v258h-1l-1-137-1-30-1-5v-38l1-49z" fill="#FBFBFB"/>
<path transform="translate(1532,532)" d="m0 0h98l36 1 28 2v1h-89l-75-1 1 19 2 11 2 4-5-1-2-6v-28z" fill="#E4E4E4"/>
<path transform="translate(671,490)" d="m0 0h57v1l-58 1-1 69v139l-2-2-1-29v-159l1-18z" fill="#EFEFEF"/>
<path transform="translate(1569,1337)" d="m0 0 7 6 20 20 7 8 29 29 7 8 21 21v2h2l7 8 15 15 8 7 11 12 6 9 1 7-4-5-11-12-9-10-12-13-7-8-15-15v-2l-3-1-7-8-20-20-7-8-13-13-7-8-10-10-7-8-9-9z" fill="#F4F4F4"/>
<path transform="translate(1336,1094)" d="m0 0 8 6 12 11 14 14 7 8 7 6v2l4 2v2l4 2 16 16 7 8 9 10 9 11 7 9 3 3-1 2-8-8-7-8-23-23-7-8-21-21-7-8-15-15-7-8-11-11z" fill="#E1E1E1"/>
<path transform="translate(516,551)" d="m0 0h1v6h3v8l-4 3-5 1h-137l-1-3 139-1 3-5z" fill="#E0E0E0"/>
<path transform="translate(547,273)" d="m0 0 3 3h-2l2 5 1 44-1 119h-1l-1-14-1-49z" fill="#DCDCDC"/>
<path transform="translate(335,1488)" d="m0 0 7 1 13 3 19 2 3 1 44 2h85l-1 2h-130l-28-2-5-2-5-5v2h-3z" fill="#DCDCDC"/>
<path transform="translate(1487,259)" d="m0 0h7l5 2 1 2v6h-8v-3h-2v-2h-44l-1-1-71-1v-1l26-1z" fill="#383838"/>
<path transform="translate(1197,518)" d="m0 0 1 3-12 36-11 30-10 28-12 32-1-4 15-45 7-20 9-24 10-30z" fill="#DCDCDC"/>
<path transform="translate(1144,260)" d="m0 0h13 1l8 2v-2h5 1 93l5 1v1l-17 1h-109z" fill="#D8D8D8"/>
<path transform="translate(1047,556)" d="m0 0 2 2 18 47 10 32 11 29 6 15 5 9 6 8 2 1v2l-5-2-7-8-8-20-10-28-7-18-17-49-6-17z" fill="#EAEAEA"/>
<path transform="translate(962,491)" d="m0 0 9 3 10 7 8 7 9 14 7 15 1 8-5 6-4 1-1-4 1-2v-13l-4-10-9-14-5-5-7-6-6-4-4-1z" fill="#DCDCDC"/>
<path transform="translate(672,891)" d="m0 0 4 2 19 19 8 7 11 10 15 10 11 7 4 6 2 1v3l-5-1-10-7-11-9-15-14-33-33z" fill="#F5F5F5"/>
<path transform="translate(311,551)" d="m0 0 2 1-14 12-7 8-7 11-8 17-6 24-2 11-1 1-2 22h-1v-17l1-15 4-17 4-12 10-19 11-13 5-6z" fill="#F6F6F6"/>
<path transform="translate(1448,866)" d="m0 0v3l-69 69-8 7-7 6-1-2 5-5h2l2-4 20-20 8-7 38-38h2l1-3z" fill="#F7F7F7"/>
<path transform="translate(980,601)" d="m0 0 5 2 9 9 8 11 4 17v13l-3 14-7 11-10 11h-2v-2l4-4h2l2-4 6-8 4-10v-20l-2-12-7-12-9-11z" fill="#D8D8D8"/>
<path transform="translate(1071,525)" d="m0 0 2 3 7 19 9 30 6 18 7 25-1 4-9-24-9-32-11-36-1-1z" fill="#F5F5F5"/>
<path transform="translate(699,522)" d="m0 0h2v39l2 20 2 4 4 1 29 1v1l-22 1-15-2-3-12v-46z" fill="#404040"/>
<path transform="translate(899,670)" d="m0 0 5 1 15 6 5 1h26l-2 1v2l-9 3h-15l-10-4-12-7z" fill="#F2F2F2"/>
<path transform="translate(885,544)" d="m0 0 5 4 6 12 12 9 11 5 30 10 13 5-4 1-32-10-17-7-5-2-10-10-9-14z" fill="#EDEDED"/>
<path transform="translate(1400,260)" d="m0 0h86v1l-32 2-80-1v-1z" fill="#DCDCDC"/>
<path transform="translate(1336,1094)" d="m0 0 8 6 12 11 14 14 7 8 3 3 1 6-5-4-7-8-15-15-7-8-11-11z" fill="#F4F4F4"/>
<path transform="translate(933,612)" d="m0 0 10 1 16 8 9 7 4 10 1 14-3 9-1 2-2-1 3-7v-12l-6-12-8-8-8-5-15-5z" fill="#D8D8D8"/>
<path transform="translate(1292,514)" d="m0 0h29l13 3 6 4 5 4 3 4-1 2-9-8-13-4-19-2-27-1v-1z" fill="#EDEDED"/>
<path transform="translate(335,1488)" d="m0 0 7 1 13 3 19 2 2 2-12 2-17-1-5-2-5-5v2h-3z" fill="#E0E0E0"/>
<path transform="translate(776,622)" d="m0 0h2l4 15 1 16-1 22h-1l-2-24-4-17-1-7z" fill="#DEDEDE"/>
<path transform="translate(370,565)" d="m0 0h142v1l-131 1-8-1 1 3-5-1z" fill="#383838"/>
<path transform="translate(1144,260)" d="m0 0h13 1l8 2v-2h5 1 29l-1 3h-56z" fill="#CECECE"/>
<path transform="translate(1047,556)" d="m0 0 2 2 18 47 3 9v8l-2-3-15-43-6-17z" fill="#F0F0F0"/>
<path transform="translate(1143,579)" d="m0 0 1 2-8 25-9 24-1 3h-2l3-12 14-41z" fill="#959595"/>
<path transform="translate(1324,1049)" d="m0 0h2l-3 9-1 2v7l-1 5v5l-5-5-2-4 1-8 6-8z" fill="#3A3A3A"/>
<path transform="translate(1267,535)" d="m0 0h1v36l2 15 3 5 4 2 1 4-5-1-5-7-2-7-1-9v-22z" fill="#EAEAEA"/>
<path transform="translate(918,510)" d="m0 0 20 1 11 3 7 8-1 2-10-7-10-4h-16l-11 4-6 4-2-1 8-6 5-3z" fill="#E4E4E4"/>
<path transform="translate(738,516)" d="m0 0h22l7 3 5 5 4 8-1 2-8-9-10-5-19-3z" fill="#E4E4E4"/>
<path transform="translate(279,1474)" d="m0 0 5 5 11 14 6 7 4 4v2h2l4 6-4-2-10-9-9-11-9-14z" fill="#F4F4F4"/>
<path transform="translate(690,1064)" d="m0 0v3l-11 12-7 8-6 4-18 18-2-1z" fill="#BFBFBF"/>
<path transform="translate(1367,1122)" d="m0 0h3l1 4h3l20 20 7 8 5 5-1 2-15-15-6-5v-2l-4-2-10-10z" fill="#383838"/>
<path transform="translate(1176,491)" d="m0 0 2 1-7 10-8 17-3 12-3 2 2-9 9-26 5-6z" fill="#B8B8B8"/>
<path transform="translate(311,551)" d="m0 0 2 1-14 12-7 8-7 11-5 10-2-4 7-12 9-11 6-7z" fill="#F2F2F2"/>
<path transform="translate(1235,489)" d="m0 0h51v1l-26 1-18 2-5 1-2-2z" fill="#DCDCDC"/>
<path transform="translate(1028,489)" d="m0 0h10l-6 7-2 11-2-3-3-9 1-5z" fill="#F1F1F1"/>
<path transform="translate(1193,486)" d="m0 0h7l5 1v9l-1 5-2-4-5-6-11-3v-1z" fill="#F7F7F7"/>
<path transform="translate(552,259)" d="m0 0 5 1 2 2-6 5-3 6-3-2-1-5 3-6z" fill="#F2F2F2"/>
<path transform="translate(323,592)" d="m0 0 5 2 8 7 10 10 7 8 4 5-4-1-9-10-9-9-7-6v-2l-4-2z" fill="#EFEFEF"/>
<path transform="translate(871,507)" d="m0 0 2 1-9 14-5 11-2 8-1 14h-1v-18l3-10 6-11z" fill="#F3F3F3"/>
<path transform="translate(1529,535)" d="m0 0h1l1 19 2 11 2 4-5-1-2-6v-26z" fill="#DCDCDC"/>
<path transform="translate(732,1061)" d="m0 0 1 4-6 10-6 7-4-1 10-14 3-4h2z" fill="#DFDFDF"/>
<path transform="translate(1071,525)" d="m0 0 2 3 7 19 5 17-1 3v-2h-2l-10-33-1-1z" fill="#E8E8E8"/>
<path transform="translate(980,601)" d="m0 0 5 2 9 9 8 11-2 3-4-4-4-6-8-10z" fill="#E5E5E5"/>
<path transform="translate(316,1516)" d="m0 0 5 1 14 5 11 4v2l-9-1-15-6-6-4z" fill="#F1F1F1"/>
<path transform="translate(1569,1337)" d="m0 0 7 6 20 20 7 8 1 2-4-2-15-15-7-8-9-9z" fill="#F3F3F3"/>
<path transform="translate(1405,908)" d="m0 0m-1 1m-1 1m-1 1m-1 1m-1 1m-1 1m-1 1m-1 1m-2 1 2 1-2 1zm-1 2m-2 1 2 1-16 16-7 8-7 6-1-2 5-5h2l2-4 5-5z" fill="#F3F3F3"/>
<path transform="translate(960,529)" d="m0 0 7 6 7 9 11 7 2 1v2l-5-1-9-6-7-8-6-8z" fill="#DEDEDE"/>
<path transform="translate(1089,674)" d="m0 0h2l8 16 6 8 2 1v2l-5-2-7-8-6-14z" fill="#F4F4F4"/>
<path transform="translate(1094,259)" d="m0 0h31l-3 2-9 1h-19z" fill="#3A3A3A"/>
<path transform="translate(962,491)" d="m0 0 9 3 10 7 8 7 1 3-2 1-2-3-3-1-5-5-9-7-7-3z" fill="#F2F2F2"/>
<path transform="translate(1489,259)" d="m0 0 9 1 2 3v6l-7-1-1-4-4-2z" fill="#F0F0F0"/>
<path transform="translate(472,1290)" d="m0 0 2 1-27 27-6 7-2-1 15-16 14-14z" fill="#E0E0E0"/>
<path transform="translate(1047,487)" d="m0 0 9 1 5 6 3 7-1 3-4-7-6-4-3-3-3-1z" fill="#F8F8F8"/>
<path transform="translate(580,292)" d="m0 0 4 1h40l-1 2h-41v5h-2z" fill="#FCFCFC"/>
<path transform="translate(749,950)" d="m0 0 12 4 12 2v1h-19l-5-2z" fill="#F1F1F1"/>
<path transform="translate(720,975)" d="m0 0 10 4 9 6-2 1-15-6-4-2v-2z" fill="#F0F0F0"/>
<path transform="translate(994,259)" d="m0 0h26l-2 3h-9l-4-2v2l-5-1-2-1v2h-4z" fill="#424242"/>
<path transform="translate(1324,1049)" d="m0 0h2l-9 18-3-4 5-9z" fill="#E3E3E3"/>
<path transform="translate(701,577)" d="m0 0 4 8 4 1 29 1v1l-22 1-11-1-3-1-1-3z" fill="#eee"/>
<path transform="translate(1327,933)" d="m0 0 2 1-9 8-10 6h-3v-3l15-8z" fill="#F3F3F3"/>
<path transform="translate(709,612)" d="m0 0 30 1v1l-22 1h-16l3-2z" fill="#ECECEC"/>
<path transform="translate(885,544)" d="m0 0 5 4 6 12 8 6-1 3-7-6-6-8-5-8z" fill="#DCDCDC"/>
<path transform="translate(933,580)" d="m0 0 7 1 22 8-4 1-16-5-8-3z" fill="#F4F4F4"/>
<path transform="translate(1176,491)" d="m0 0 2 1-7 10-3 3-3 4 2-9 4-6z" fill="#F6F6F6"/>
<path transform="translate(337,1490)" d="m0 0 4 2 2 3 14 2 18 1v1h-19l-14-2-3-3-3-1-1 2-1-3h3z" fill="#383838"/>
<path transform="translate(1083,565)" d="m0 0 1 2h2l6 18v2h-2l-1 2-6-21z" fill="#ECECEC"/>
<path transform="translate(1e3 534)" d="m0 0h2l2 6-1 7-4 2v-14z" fill="#3A3A3A"/>
<path transform="translate(789,501)" d="m0 0 7 4 8 9 6 9-1 3-7-10-11-12-2-1z" fill="#EDEDED"/>
<path transform="translate(862,572)" d="m0 0h2l5 6 8 7 7 6-1 2-8-6-5-4-8-10z" fill="#EFEFEF"/>
<path transform="translate(1150,557)" d="m0 0 1 2-5 16-4 4 2-9 4-12z" fill="#6D6D6D"/>
<path transform="translate(765,520)" d="m0 0 5 1 5 8 1 5-5-5-6-5z" fill="#E1E1E1"/>
<path transform="translate(1160,622)" d="m0 0 1 4-8 21-1-4 7-20z" fill="#DEDEDE"/>
<path transform="translate(818,681)" d="m0 0h1l3 14v6l-4 1z" fill="#F2F2F2"/>
<path transform="translate(1186,260)" d="m0 0h15l-1 3h-15z" fill="#C6C6C6"/>
<path transform="translate(740,946)" d="m0 0 9 4 1 6-6 1 2-1v-3l-3-1-3-4z" fill="#212121"/>
<path transform="translate(1277,593)" d="m0 0 3 1-1 3 4 2 5 6-4-1-7-5-4-2 4-1z" fill="#383838"/>
<path transform="translate(1427,1187)" d="m0 0h2l10 13 4 4-1 2-8-8-7-8z" fill="#E8E8E8"/>
<path transform="translate(1499,754)" d="m0 0h1v6l-7 8-3 2 2-5 4-7 2-1z" fill="#6E6E6E"/>
<path transform="translate(745,614)" d="m0 0h19l6 1 1 5-4-2-6-2-16-1z" fill="#9D9D9D"/>
<path transform="translate(579,294)" d="m0 0h1v6h2v6l-1 1-1 15h-1z" fill="#DCDCDC"/>
<path transform="translate(323,592)" d="m0 0 5 2 8 7 2 2-1 3-5-5-4-3v-2l-4-2z" fill="#F2F2F2"/>
<path transform="translate(518,537)" d="m0 0h1l1 6v14h-3z" fill="#FEFEFE"/>
<path transform="translate(1172,260)" d="m0 0h14l-1 3h-13z" fill="#CFCFCF"/>
<path transform="translate(1130,612)" d="m0 0 2 4-6 17h-2l3-12z" fill="#777"/>
<path transform="translate(285,578)" d="m0 0 1 3-6 12-2-4 6-10z" fill="#F2F2F2"/>
<path transform="translate(904,567)" d="m0 0 15 7v1l-8-1-7-3z" fill="#eee"/>
<path transform="translate(1047,556)" d="m0 0 2 2 7 18-1 2-3-4-5-15z" fill="#E9E9E9"/>
<path transform="translate(779,558)" d="m0 0h1v9l-8 11-2-1 6-9z" fill="#D0D0D0"/>
<path transform="translate(1331,519)" d="m0 0h7l7 6 3 4-1 2-9-8-7-3z" fill="#E8E8E8"/>
<path transform="translate(1366,505)" d="m0 0 5 2 7 8 3 5-1 2-8-10z" fill="#EFEFEF"/>
<path transform="translate(1201,260)" d="m0 0h13l-1 3h-13z" fill="#DCDCDC"/>
<path transform="translate(776,626)" d="m0 0 2 3 1 9h-3l-2-7v-4z" fill="#FAFAFA"/>
<path transform="translate(690,1064)" d="m0 0v3l-10 11-3-1z" fill="#F4F4F4"/>
<path transform="translate(882,498)" d="m0 0 2 1-12 12v-3l2-4z" fill="#5E5E5E"/>
<path transform="translate(1235,489)" d="m0 0h20v1l-11 1-7 1z" fill="#FEFEFE"/>
<path transform="translate(703,1052)" d="m0 0 2 1-13 13-1-3z" fill="#3C3C3C"/>
<path transform="translate(302,1501)" d="m0 0 3 3v2h2l4 6-4-2-8-7z" fill="#828282"/>
<path transform="translate(996,675)" d="m0 0v3l-10 11h-2v-2l4-4h2l2-4z" fill="#E1E1E1"/>
<path transform="translate(1236,681)" d="m0 0h1l2 15 1 4-4-2z" fill="#030303"/>
<path transform="translate(1096,609)" d="m0 0h3l3 11-1 4-5-13z" fill="#DEDEDE"/>
<path transform="translate(1137,598)" d="m0 0 1 2-5 14h-2v-4h2l1-6z" fill="#434343"/>
<path transform="translate(1054,577)" d="m0 0 4 4 2 6v5l-2-2-4-11z" fill="#F4F4F4"/>
<path transform="translate(701,577)" d="m0 0 4 8 7 2v1h-7l-3-1-1-3z" fill="#E6E6E6"/>
<path transform="translate(985,260)" d="m0 0h9v2l3 1h-13z" fill="#D6D6D6"/>
<path transform="translate(294,1493)" d="m0 0 8 8-1 2-5-3-3-5z" fill="#BCBCBC"/>
<path transform="translate(294,566)" d="m0 0v3l-7 10-2-2z" fill="#F5F5F5"/>
<path transform="translate(320,1449)" d="m0 0 2 1-7 7-3 1-1-3z" fill="#F0F0F0"/>
<path transform="translate(953,674)" d="m0 0 3 1-3 1-2 4-3 1v-2l-4-2z" fill="#6E6E6E"/>
<path transform="translate(356,563)" d="m0 0 4 2v2l7 1-4 2h-4l-3-5z" fill="#E7E7E7"/>
<path transform="translate(871,507)" d="m0 0 2 1-8 12-2-2z" fill="#F6F6F6"/>
</svg>
